<?xml version="1.0" encoding="utf-8"?>
<!-- Generator: Adobe Illustrator 15.0.0, SVG Export Plug-In . SVG Version: 6.00 Build 0)  -->
<!DOCTYPE svg PUBLIC "-//W3C//DTD SVG 1.1//EN" "http://www.w3.org/Graphics/SVG/1.1/DTD/svg11.dtd">
<svg version="1.1" xmlns="http://www.w3.org/2000/svg" xmlns:xlink="http://www.w3.org/1999/xlink" x="0px" y="0px" width="1280px"
	 height="800px" viewBox="0 0 1280 800" enable-background="new 0 0 1280 800" xml:space="preserve">
<g id="text">
	<g>
		<path fill-rule="evenodd" clip-rule="evenodd" fill="#FFFFFF" d="M66.221,388.142c7.92-0.4,17.52-0.4,25.44,0
			C83.181,388.142,74.701,388.142,66.221,388.142z"/>
		<path fill-rule="evenodd" clip-rule="evenodd" fill="#FFFFFF" d="M178.301,388.142c7.68-0.4,17.04-0.4,24.72,0
			C194.781,388.142,186.541,388.142,178.301,388.142z"/>
		<path fill-rule="evenodd" clip-rule="evenodd" fill="#FFFFFF" d="M278.381,418.382c0.571-0.398,2.789-0.398,3.36,0
			C280.621,418.382,279.501,418.382,278.381,418.382z"/>
		<path fill-rule="evenodd" clip-rule="evenodd" fill="#FFFFFF" d="M828.94,418.382c0.649-0.398,2.951-0.398,3.601,0
			C831.341,418.382,830.141,418.382,828.94,418.382z"/>
		<path fill-rule="evenodd" clip-rule="evenodd" fill="#FFFFFF" d="M942.701,418.382c0.649-0.398,2.95-0.398,3.6,0
			C945.101,418.382,943.9,418.382,942.701,418.382z"/>
		<path fill-rule="evenodd" clip-rule="evenodd" fill="#FFFFFF" d="M480.221,420.542c5.76-0.56,12.56-0.08,18.72-0.24
			C493.181,420.862,486.381,420.383,480.221,420.542z"/>
		<path fill-rule="evenodd" clip-rule="evenodd" fill="#FFFFFF" d="M764.621,424.382c-0.154,0.966,0.312,2.553-0.24,3.12
			C764.535,426.536,764.068,424.95,764.621,424.382z"/>
		<path fill-rule="evenodd" clip-rule="evenodd" fill="#FFFFFF" d="M183.341,429.183c-0.159,3.2,0.319,7.039-0.24,9.84
			C183.26,435.821,182.782,431.983,183.341,429.183z"/>
		<path fill-rule="evenodd" clip-rule="evenodd" fill="#FFFFFF" d="M85.661,429.902c0.4,32.4,0.4,66.479,0,98.88
			C85.661,495.822,85.661,462.861,85.661,429.902z"/>
		<path fill-rule="evenodd" clip-rule="evenodd" fill="#FFFFFF" d="M764.381,430.622c-0.154,0.966,0.312,2.552-0.24,3.12
			C764.295,432.776,763.829,431.19,764.381,430.622z"/>
		<path fill-rule="evenodd" clip-rule="evenodd" fill="#FFFFFF" d="M825.341,434.223c0.647-0.554,2.314-0.086,3.36-0.24
			C828.054,434.535,826.386,434.067,825.341,434.223z"/>
		<path fill-rule="evenodd" clip-rule="evenodd" fill="#FFFFFF" d="M835.421,434.223c-1.125-0.156-2.874,0.313-3.601-0.24
			C832.945,434.138,834.694,433.668,835.421,434.223z"/>
		<path fill-rule="evenodd" clip-rule="evenodd" fill="#FFFFFF" d="M942.461,435.183c0.336-0.398,2.304-0.398,2.64,0
			C944.221,435.183,943.341,435.183,942.461,435.183z"/>
		<path fill-rule="evenodd" clip-rule="evenodd" fill="#FFFFFF" d="M737.98,436.143c-0.729-0.151-2.066,0.307-2.399-0.24
			C736.311,436.053,737.648,435.595,737.98,436.143z"/>
		<path fill-rule="evenodd" clip-rule="evenodd" fill="#FFFFFF" d="M740.621,436.143c0.808,0.151,2.229-0.31,2.64,0.239
			C742.453,436.23,741.031,436.691,740.621,436.143z"/>
		<path fill-rule="evenodd" clip-rule="evenodd" fill="#FFFFFF" d="M530.141,436.622c-1.045-0.154-2.713,0.313-3.36-0.24
			C527.826,436.537,529.494,436.069,530.141,436.622z"/>
		<path fill-rule="evenodd" clip-rule="evenodd" fill="#FFFFFF" d="M745.9,436.382c0.809,0.152,2.229-0.309,2.641,0.24
			C747.732,436.47,746.312,436.932,745.9,436.382z"/>
		<path fill-rule="evenodd" clip-rule="evenodd" fill="#FFFFFF" d="M533.741,436.622c1.125,0.155,2.874-0.313,3.6,0.24
			C536.216,436.707,534.467,437.176,533.741,436.622z"/>
		<path fill-rule="evenodd" clip-rule="evenodd" fill="#FFFFFF" d="M540.941,436.862c1.125,0.155,2.874-0.314,3.6,0.24
			C543.416,436.946,541.667,437.416,540.941,436.862z"/>
		<path fill-rule="evenodd" clip-rule="evenodd" fill="#FFFFFF" d="M548.141,437.103c1.12,0,2.24,0,3.36,0
			C550.93,437.501,548.711,437.501,548.141,437.103z"/>
		<path fill-rule="evenodd" clip-rule="evenodd" fill="#FFFFFF" d="M183.101,448.862c0,26.64,0,53.28,0,79.92
			C182.701,502.702,182.701,474.941,183.101,448.862z"/>
		<path fill-rule="evenodd" clip-rule="evenodd" fill="#FFFFFF" d="M326.861,453.183c0.56,16.319,0.08,33.68,0.24,50.399
			C326.541,487.262,327.021,469.902,326.861,453.183z"/>
		<path fill-rule="evenodd" clip-rule="evenodd" fill="#FFFFFF" d="M298.301,463.022c0.726-0.554,2.476-0.085,3.6-0.24
			C301.175,463.336,299.425,462.867,298.301,463.022z"/>
		<path fill-rule="evenodd" clip-rule="evenodd" fill="#FFFFFF" d="M957.341,463.262c0.333-0.547,1.671-0.089,2.4-0.239
			C959.408,463.569,958.07,463.111,957.341,463.262z"/>
		<path fill-rule="evenodd" clip-rule="evenodd" fill="#FFFFFF" d="M299.501,477.662c0.647-0.553,2.314-0.085,3.36-0.24
			C302.214,477.976,300.546,477.508,299.501,477.662z"/>
		<path fill-rule="evenodd" clip-rule="evenodd" fill="#FFFFFF" d="M564.221,484.862c0.554,0.726,0.085,2.476,0.24,3.6
			C563.907,487.736,564.376,485.986,564.221,484.862z"/>
		<path fill-rule="evenodd" clip-rule="evenodd" fill="#FFFFFF" d="M248.141,494.942c0,1.2,0,2.399,0,3.6
			C247.742,497.893,247.742,495.592,248.141,494.942z"/>
		<path fill-rule="evenodd" clip-rule="evenodd" fill="#FFFFFF" d="M892.061,500.462c-0.399-1.204-0.399-4.075,0-5.279
			C892.061,496.942,892.061,498.702,892.061,500.462z"/>
		<path fill-rule="evenodd" clip-rule="evenodd" fill="#FFFFFF" d="M816.94,530.942c-0.729-0.15-2.067,0.307-2.399-0.24
			C815.271,530.853,816.608,530.395,816.94,530.942z"/>
		<path fill-rule="evenodd" clip-rule="evenodd" fill="#FFFFFF" d="M509.501,383.582c0.779-0.98,1.659-1.86,2.64-2.64
			C511.361,381.922,510.481,382.803,509.501,383.582z"/>
		<path fill-rule="evenodd" clip-rule="evenodd" fill="#FFFFFF" d="M519.341,410.223c0,3.279,0,6.56,0,9.84
			c6.633,0.428,17.032,0.239,25.68,0.239c1.975,0,8.581-0.818,7.2,1.44c0.375-1.732-1.472-1.17-3.36-1.2
			c-9.3-0.148-21.177,0.112-29.76,0C519.26,417.182,518.782,413.183,519.341,410.223z"/>
		<path fill-rule="evenodd" clip-rule="evenodd" fill="#FFFFFF" d="M519.341,436.143c0,27.041,0,58.257,0,86.88
			c0,1.829,0.233,5.48,0,5.76c-0.747,0.895-8.94,0.24-10.32,0.24c-3.659,0-6.941,0.194-10.08-0.24c6.64,0,13.28,0,19.92,0
			C519.581,498.463,518.621,466.461,519.341,436.143z"/>
		<path fill-rule="evenodd" clip-rule="evenodd" fill="#FFFFFF" d="M181.421,413.822c0.255-0.545,1.509-0.092,2.16-0.24
			c-0.158,1.842,0.318,4.317-0.24,5.76C182.846,417.356,184.747,412.977,181.421,413.822z"/>
		<path fill-rule="evenodd" clip-rule="evenodd" fill="#FFFFFF" d="M700.301,437.103c1.602-0.273,0.96,4.773,0.96,6.96
			c0,7.25,0,16.001,0,22.319c0,9.841,0,19.681,0,29.521c-0.434-14.967-0.239-34.618-0.24-51.36c0-2.26,0.485-5.959,0-7.2
			C700.982,437.244,700.109,437.473,700.301,437.103z"/>
		<path fill-rule="evenodd" clip-rule="evenodd" fill="#FFFFFF" d="M725.021,435.422c-1.254,0.055-2.396-0.004-3.359-0.239
			c0.838,18.178-1.109,42.193,0,60.479c0.662,10.918,6.711,18.12,17.52,18.96c1.364,0.399,4.396,0.399,5.76,0
			c9.317-0.363,15.313-4.048,21.601-7.439c1.88,5,4.273,9.486,6.24,14.399c-13.907,12.217-48.721,13.067-62.16-0.479
			c-5.901-5.948-8.634-14.397-9.36-25.2c0-9.84,0-19.68,0-29.521c0-6.318,0-15.069,0-22.319c0-2.187,0.642-7.233-0.96-6.96
			c-5.333-0.747-10.527-1.634-16.08-2.16c0-2.48,0-4.96,0-7.44c2.361-1.893,4.747-3.482,7.2-5.04
			c2.372-1.506,5.384-2.561,7.439-4.56c1.538-1.495,2.745-4.152,4.08-6.24c3.814-5.965,7.91-12.314,12-18.24
			c2.281,0.279,4.213,0.908,6.721,0.96c0,8.64,0,17.28,0,25.919c0,0.08,0,0.16,0,0.24c14.319,0,28.64,0,42.96,0
			c0,0.24,0,0.48,0,0.72c0,1.04,0,2.08,0,3.12c-0.553,0.568-0.086,2.154-0.24,3.12c0,1.04,0,2.08,0,3.12
			c-0.552,0.568-0.086,2.154-0.24,3.12c0,0.96,0,1.92,0,2.88c-0.233,0.007-0.186,0.294-0.24,0.48c-0.8,0-1.6,0-2.399,0
			s-1.601,0-2.4,0c-0.41-0.55-1.832-0.089-2.64-0.24c-0.88,0-1.76,0-2.641,0c-0.41-0.55-1.831-0.088-2.64-0.24
			c-0.88,0-1.76,0-2.64,0c-0.411-0.549-1.832-0.088-2.641-0.24c-0.88,0-1.76,0-2.64,0c-0.411-0.549-1.832-0.088-2.64-0.239
			c-0.88,0-1.76,0-2.641,0c-0.332-0.548-1.67-0.09-2.399-0.24c-0.88,0-1.761,0-2.641,0c-0.41-0.55-1.832-0.088-2.64-0.24
			c-0.88,0-1.76,0-2.64,0C727.25,435.113,725.829,435.574,725.021,435.422z"/>
		<path fill-rule="evenodd" clip-rule="evenodd" fill="#FFFFFF" d="M721.661,420.302c9.521,0,21.808,0,32.88,0
			c2.344,0,10.75-0.633,10.08,0.96c0-0.239,0-0.479,0-0.72c-14.32,0-28.641,0-42.96,0
			C721.661,420.462,721.661,420.382,721.661,420.302z"/>
		<path fill-rule="evenodd" clip-rule="evenodd" fill="#FFFFFF" d="M761.501,437.103c0.8,0,1.6,0,2.399,0
			c0.055-0.187,0.007-0.474,0.24-0.48C764.367,437.739,761.942,437.45,761.501,437.103z"/>
		<path fill-rule="evenodd" clip-rule="evenodd" fill="#FFFFFF" d="M234.701,519.422c1.141,0.94,2.18,1.98,3.12,3.12
			C236.681,521.603,235.641,520.563,234.701,519.422z"/>
		<path fill-rule="evenodd" clip-rule="evenodd" fill="#FFFFFF" d="M340.301,514.382c-0.556,3.673,1.662,11.582,0,14.641
			c-0.037,0.066-0.415-0.052-0.48,0C340.922,525.083,339.995,519.116,340.301,514.382z"/>
		<path fill-rule="evenodd" clip-rule="evenodd" fill="#FFFFFF" d="M789.82,467.582c0.901,0.699,1.701,1.5,2.4,2.4
			C791.32,469.282,790.521,468.482,789.82,467.582z"/>
		<path fill-rule="evenodd" clip-rule="evenodd" fill="#FFFFFF" d="M865.421,519.662c0.859-1.061,1.819-2.021,2.88-2.88
			C867.441,517.843,866.481,518.803,865.421,519.662z"/>
		<path fill-rule="evenodd" clip-rule="evenodd" fill="#FFFFFF" d="M971.741,454.862c0.419,0.938,0.239,2.532,0.239,4.08
			c0,1.385,0.549,3.64-0.72,3.84C972.322,461.044,971.463,457.385,971.741,454.862z"/>
		<path fill-rule="evenodd" clip-rule="evenodd" fill="#FFFFFF" d="M970.781,517.982c1.1-1.301,2.299-2.5,3.6-3.601
			C973.281,515.683,972.081,516.883,970.781,517.982z"/>
		<path fill-rule="evenodd" clip-rule="evenodd" fill="#FFFFFF" d="M436.301,519.183c0.94-1.141,1.979-2.181,3.12-3.12
			C438.481,517.202,437.441,518.242,436.301,519.183z"/>
		<path fill-rule="evenodd" clip-rule="evenodd" fill="#FFFFFF" d="M434.381,503.103c1.1-1.301,2.3-2.501,3.6-3.601
			C436.881,500.803,435.681,502.002,434.381,503.103z"/>
		<path fill-rule="evenodd" clip-rule="evenodd" fill="#FFFFFF" d="M359.261,487.982c-0.434-17.359-0.24-39.536-0.24-59.04
			c0-1.731-0.498-7.805,0-8.4c0.785-0.94,8.969-0.24,10.32-0.24c4.104,0,7.088-0.19,10.08,0.24c-6.72,0-13.44,0-20.16,0
			C359.261,443.021,359.261,465.502,359.261,487.982z"/>
		<path fill-rule="evenodd" clip-rule="evenodd" fill="#FFFFFF" d="M441.581,420.542c4.146-0.429,9.477-0.24,15.12-0.24
			c1.368,0,4.603-0.365,5.04,0c0.967,0.808,0.24,11.652,0.24,13.44c-0.001,31.021,0.197,65.579-0.24,95.04c0-36,0-72,0-108
			C455.5,420.223,448.221,420.702,441.581,420.542z"/>
		<path fill-rule="evenodd" clip-rule="evenodd" fill="#FFFFFF" d="M575.261,518.942c0.9,0.699,1.701,1.499,2.4,2.399
			C576.76,520.643,575.96,519.843,575.261,518.942z"/>
		<path fill-rule="evenodd" clip-rule="evenodd" fill="#FFFFFF" d="M640.061,502.622c0.859-1.061,1.82-2.021,2.88-2.88
			C642.081,500.803,641.121,501.763,640.061,502.622z"/>
		<path fill-rule="evenodd" clip-rule="evenodd" fill="#FFFFFF" d="M564.221,420.542c6.242-0.401,14.157-0.397,20.4,0
			c0,21.44,0,42.88,0,64.32c-0.56-20.881-0.08-42.8-0.24-64.08C578.141,420.223,570.861,420.702,564.221,420.542z"/>
		<path fill-rule="evenodd" clip-rule="evenodd" fill="#FFFFFF" d="M646.541,495.422c0.159-24.96-0.32-50.56,0.24-75.12
			c6.64,0.16,13.919-0.319,20.159,0.24c-6.64,0-13.279,0-19.92,0C646.301,444.942,647.261,471.021,646.541,495.422z"/>
		<path fill-rule="evenodd" clip-rule="evenodd" fill="#FFFFFF" d="M971.501,477.422c0.06-0.302,0.477-0.242,0.479,0
			c-0.315,7.524,0.635,16.314-0.479,23.04c0.558-7.202,0.081-15.438,0.24-23.04C971.661,477.422,971.581,477.422,971.501,477.422z"
			/>
		<path fill-rule="evenodd" clip-rule="evenodd" fill="#FFFFFF" d="M537.341,370.862c0.489-0.551,1.993-0.087,2.88-0.24
			C539.731,371.173,538.228,370.709,537.341,370.862z"/>
		<path fill-rule="evenodd" clip-rule="evenodd" fill="#FFFFFF" d="M546.461,370.862c12.324,0.556,21.736,4.024,29.52,9.12
			c-2.444,5.316-5.585,9.935-8.16,15.12c-8.717-6.059-25.917-10.032-37.68-4.56c-7.065,3.287-10.179,10.254-10.8,19.681
			c-0.559,2.96-0.081,6.959-0.24,10.319c8.583,0.112,20.46-0.148,29.76,0c1.888,0.03,3.734-0.532,3.36,1.2c0,0.72,0,1.44,0,2.16
			c-0.547,0.333-0.089,1.67-0.24,2.399c0,0.721,0,1.44,0,2.16c-0.547,0.333-0.089,1.671-0.24,2.4c0.049,2.209-0.42,3.899-0.24,6.24
			c-1.12,0-2.24,0-3.36,0c-1.2,0-2.4,0-3.6,0c-0.727-0.555-2.476-0.085-3.6-0.24c-1.2,0-2.4,0-3.6,0
			c-0.726-0.554-2.476-0.085-3.6-0.24c-1.2,0-2.4,0-3.6,0c-0.647-0.553-2.314-0.085-3.36-0.24c-1.2,0-2.4,0-3.6,0
			c-0.726-0.554-2.475-0.084-3.6-0.239c-0.08,0-0.16,0-0.24,0c-0.72,30.318,0.24,62.32-0.48,92.64c-6.64,0-13.28,0-19.92,0
			c0-30.48,0-60.96,0-91.44c-6.033-1.086-12.335-1.904-18.72-2.64c0-4.72,0-9.44,0-14.16c6.16-0.159,12.96,0.32,18.72-0.24
			c-0.8-16.56,2.942-28.577,10.56-36.72c0.98-0.779,1.86-1.66,2.64-2.64c6.252-5.508,14.165-9.355,25.2-10.08
			c0.887-0.153,2.391,0.311,2.88-0.24c0.8,0,1.6,0,2.4,0C543.426,371.177,545.257,370.706,546.461,370.862z"/>
		<path fill-rule="evenodd" clip-rule="evenodd" fill="#FFFFFF" d="M91.661,388.142c14.546,20.974,28.333,42.707,42.96,63.6
			c14.747-21.014,28.958-42.562,43.68-63.6c8.24,0,16.48,0,24.72,0c0,46.88,0,93.76,0,140.64c-6.64,0-13.28,0-19.92,0
			c0-26.64,0-53.28,0-79.92c0-3.28,0-6.561,0-9.84c0.559-2.801,0.081-6.64,0.24-9.84c0-3.28,0-6.561,0-9.841
			c0.558-1.442,0.082-3.918,0.24-5.76c-0.651,0.148-1.904-0.305-2.16,0.24c-14.339,21.021-28.529,42.189-43.2,62.88
			c-2.64,0-5.28,0-7.92,0c-14.157-19.381-26.954-40.027-40.8-60c-0.793-1.144-1.732-2.959-3.36-3.12
			c-1.115,4.484-0.163,11.037-0.48,16.32c0,32.959,0,65.92,0,98.88c-6.48,0-12.96,0-19.44,0c0-46.88,0-93.761,0-140.64
			C74.701,388.142,83.181,388.142,91.661,388.142z"/>
		<path fill-rule="evenodd" clip-rule="evenodd" fill="#FFFFFF" d="M271.661,418.622c0.333-0.547,1.67-0.09,2.4-0.24
			C273.728,418.93,272.39,418.472,271.661,418.622z"/>
		<path fill-rule="evenodd" clip-rule="evenodd" fill="#FFFFFF" d="M935.98,418.622c0.333-0.547,1.671-0.09,2.4-0.24
			C938.048,418.93,936.71,418.472,935.98,418.622z"/>
		<path fill-rule="evenodd" clip-rule="evenodd" fill="#FFFFFF" d="M946.301,418.382c16.933,0.692,28.462,3.023,36.24,10.801
			c14.911,14.91,6.62,48.483,8.88,75.6c0.599,7.184,5.026,10.184,13.44,9.6c0,4.801,0,9.601,0,14.4
			c-5.688,1.299-13.014,3.534-19.2,1.68c-6.643-1.991-9.462-9.015-10.32-16.8c-0.162-0.525-0.798,0.455-0.96,0.72
			c-1.301,1.101-2.5,2.3-3.6,3.601c-10.28,9.71-30.509,15.093-49.2,12.479c-16.795-2.348-28.401-11.885-29.521-30
			c0-1.76,0-3.52,0-5.279c0.439-10.682,4.943-17.298,10.08-23.28c16.463-4.816,34.75-7.812,55.2-8.641
			c0.729-0.15,2.067,0.308,2.4-0.239c1.04,0,2.08,0,3.12,0c1.124-0.155,2.873,0.313,3.6-0.24c1.6,0,3.2,0,4.8,0
			c1.269-0.2,0.72-2.455,0.72-3.84c0-1.548,0.18-3.142-0.239-4.08c-0.279-15.161-11.017-19.863-26.641-19.68
			c-0.336-0.398-2.304-0.398-2.64,0c-16.156-0.076-27.884,4.276-39.6,8.64c-1.586-5.215-3.063-10.538-4.32-16.08
			c11.172-4.348,22.714-8.326,37.439-9.12c0.729-0.15,2.067,0.308,2.4-0.24c1.439,0,2.88,0,4.32,0
			C943.9,418.382,945.101,418.382,946.301,418.382z M971.501,477.422c-1.44,0-2.88,0-4.32,0c-1.045,0.155-2.713-0.313-3.36,0.24
			c-0.88,0-1.76,0-2.64,0c-0.808,0.152-2.229-0.31-2.64,0.24c-15.396,0.443-28.946,2.734-41.76,5.76
			c-5.505,6.076-5.785,18.612-0.961,24.48c2.262,2.75,6.716,4.928,10.32,5.76c17.075,3.94,37.135-5.605,45.36-13.44
			c1.114-6.726,0.164-15.516,0.479-23.04C971.978,477.18,971.561,477.12,971.501,477.422z"/>
		<path fill-rule="evenodd" clip-rule="evenodd" fill="#FFFFFF" d="M281.741,418.382c26.466,0.174,44.513,8.767,45.12,34.801
			c0.16,16.72-0.32,34.079,0.24,50.399c-0.284,8.284,4.679,11.321,13.2,10.8c-0.306,4.734,0.621,10.701-0.48,14.641
			c-7.178,1.936-17.24,3.435-22.56-0.721c-4.104-3.204-5.548-8.252-6.24-14.64c-2.211,1.349-3.799,3.684-6,5.521
			c-6.233,5.2-15.213,9.105-25.2,10.8c-15.463,2.623-33.084,0.535-42-7.44c-0.94-1.14-1.979-2.18-3.12-3.12
			c-6-6.011-8.963-19.668-6-31.68c0.8-3.243,2.196-6.104,3.84-8.88c1.499-2.531,3.721-6.002,5.52-6.96
			c1.554-0.828,4.092-1.079,6.24-1.68c13.961-3.906,31.106-6.212,48.48-6.961c0.808-0.151,2.229,0.31,2.64-0.239
			c0.96,0,1.92,0,2.88,0c1.125-0.155,2.874,0.313,3.6-0.24c1.84,0,3.68,0,5.52,0c2.088-20.168-7.839-28.321-26.64-27.6
			c-0.414-0.398-2.466-0.398-2.88,0c-16.139-0.06-27.823,4.337-39.6,8.64c-1.283-5.277-2.907-10.213-4.08-15.6
			c10.356-5.324,22.799-8.562,37.44-9.601c0.729-0.15,2.067,0.308,2.4-0.24c1.44,0,2.88,0,4.32,0
			C279.501,418.382,280.621,418.382,281.741,418.382z M248.141,498.542c0.433,9.868,7.703,15.154,17.28,15.84
			c13,0.932,25.738-3.043,34.08-8.399c2.679-1.721,7.352-4.329,7.92-6.24c0.96-3.229,0-7.66,0-11.04c0-3.788,0-7.453,0-11.28
			c-1.52,0-3.04,0-4.56,0c-1.045,0.155-2.713-0.313-3.36,0.24c-0.96,0-1.92,0-2.88,0c-0.729,0.15-2.067-0.308-2.4,0.24
			c-15.461,0.538-29.448,2.552-42,6c-2.099,2.94-4.025,6.055-4.08,11.04C247.742,495.592,247.742,497.893,248.141,498.542z"/>
		<path fill-rule="evenodd" clip-rule="evenodd" fill="#FFFFFF" d="M839.98,418.622c11.296,0.544,20.579,3.102,29.28,6.24
			c-2.006,5.354-4.241,10.479-6.24,15.84c-8.023-3.337-16.344-6.376-27.6-6.479c-0.727-0.555-2.476-0.085-3.601-0.24
			c-1.039,0-2.079,0-3.119,0c-1.046,0.154-2.713-0.313-3.36,0.24c-9.503,0.315-19.084,2.996-21.6,10.319
			c-4.411,12.84,9.194,16.264,19.92,18c7.303,1.183,15.16,1.951,21.359,3.36c13.06,2.968,24.988,9.139,28.32,21.12
			c2.793,10.044,0.969,23.354-5.04,29.76c-1.061,0.859-2.021,1.819-2.88,2.88c-11.004,8.916-28.053,11.787-48.48,11.28
			c-0.332-0.548-1.67-0.09-2.399-0.24c-12.097-0.544-22.085-3.195-30.96-6.96c1.581-5.618,3.21-11.189,5.04-16.56
			c13.906,7.664,52.148,12.618,63.84-0.48c4.515-5.059,3.982-15.503-1.44-19.68c-6.326-4.874-19.179-5.266-29.52-6.721
			c-11.996-1.688-22.583-4.528-29.28-10.319c-0.699-0.9-1.499-1.701-2.4-2.4c-6.157-6.035-7.263-20.079-3.6-28.8
			c6.017-14.324,23.206-19.986,42.72-20.4c1.2,0,2.4,0,3.601,0c1.6,0,3.2,0,4.8,0C837.752,418.932,839.173,418.47,839.98,418.622z"
			/>
		<path fill-rule="evenodd" clip-rule="evenodd" fill="#FFFFFF" d="M552.221,423.902c-0.15,0.729,0.308,2.067-0.24,2.399
			C552.131,425.572,551.673,424.235,552.221,423.902z"/>
		<path fill-rule="evenodd" clip-rule="evenodd" fill="#FFFFFF" d="M551.981,428.462c-0.151,0.729,0.307,2.067-0.24,2.4
			C551.892,430.133,551.434,428.795,551.981,428.462z"/>
		<path fill-rule="evenodd" clip-rule="evenodd" fill="#FFFFFF" d="M725.021,435.422c0.809,0.152,2.229-0.309,2.641,0.24
			C726.853,435.51,725.432,435.972,725.021,435.422z"/>
		<path fill-rule="evenodd" clip-rule="evenodd" fill="#FFFFFF" d="M730.301,435.662c0.808,0.152,2.229-0.31,2.64,0.24
			C732.133,435.75,730.712,436.211,730.301,435.662z"/>
		<path fill-rule="evenodd" clip-rule="evenodd" fill="#FFFFFF" d="M519.581,436.143c1.125,0.155,2.874-0.314,3.6,0.239
			C522.056,436.227,520.307,436.696,519.581,436.143z"/>
		<path fill-rule="evenodd" clip-rule="evenodd" fill="#FFFFFF" d="M751.181,436.622c0.809,0.152,2.229-0.31,2.64,0.24
			C753.013,436.71,751.592,437.172,751.181,436.622z"/>
		<path fill-rule="evenodd" clip-rule="evenodd" fill="#FFFFFF" d="M756.461,436.862c0.808,0.151,2.229-0.31,2.64,0.24
			C758.293,436.95,756.871,437.411,756.461,436.862z"/>
		<path fill-rule="evenodd" clip-rule="evenodd" fill="#FFFFFF" d="M962.861,463.022c0.726-0.554,2.475-0.085,3.6-0.24
			C965.734,463.336,963.985,462.867,962.861,463.022z"/>
		<path fill-rule="evenodd" clip-rule="evenodd" fill="#FFFFFF" d="M292.781,463.262c0.411-0.549,1.832-0.088,2.64-0.239
			C295.01,463.571,293.589,463.11,292.781,463.262z"/>
		<path fill-rule="evenodd" clip-rule="evenodd" fill="#FFFFFF" d="M294.221,477.902c0.333-0.548,1.67-0.09,2.4-0.24
			C296.288,478.209,294.95,477.752,294.221,477.902z"/>
		<path fill-rule="evenodd" clip-rule="evenodd" fill="#FFFFFF" d="M379.421,420.542c0,13.025,0,28.566,0,44.4
			c0,23.894-2.012,47.279,19.68,49.439c14.424,1.437,27.549-3.84,35.28-11.279c1.3-1.101,2.5-2.3,3.6-3.601
			c1.174-1.546,2.601-2.838,3.6-4.56c0-24.8,0-49.601,0-74.4c6.64,0.16,13.919-0.319,20.16,0.24c0,36,0,72,0,108
			c-5.84,0-11.68,0-17.52,0c-0.327-5.593-0.902-10.938-1.2-16.56c-1.194,0.329-2.319,2.799-3.6,3.84
			c-1.141,0.939-2.18,1.979-3.12,3.12c-13.196,14.844-50.327,15.757-65.04,1.199c-7.966-7.881-10.934-18.491-12-32.399
			c0-22.48,0-44.961,0-67.44C365.981,420.542,372.701,420.542,379.421,420.542z"/>
		<path fill-rule="evenodd" clip-rule="evenodd" fill="#FFFFFF" d="M584.621,484.862c0.296,11.999,2.82,22.134,10.32,26.64
			c13.374,8.035,37.698-0.181,45.12-8.88c1.061-0.859,2.021-1.819,2.88-2.88c1.194-1.445,2.406-2.874,3.601-4.32
			c0.72-24.4-0.24-50.479,0.479-74.88c6.641,0,13.28,0,19.92,0c0,36.08,0,72.16,0,108.24c-5.84,0-11.68,0-17.52,0
			c-0.408-5.592-0.941-11.059-1.2-16.8c-5.621,7.573-15.709,15.501-28.56,18c-15.52,3.017-33.37-0.453-42-8.641
			c-0.699-0.9-1.5-1.7-2.4-2.399c-6.513-7.248-10.134-17.386-10.8-30.48c-0.155-1.124,0.313-2.874-0.24-3.6c0-21.44,0-42.88,0-64.32
			c6.64,0.16,13.92-0.319,20.16,0.24C584.541,442.063,584.061,463.981,584.621,484.862z"/>
		<path fill-rule="evenodd" clip-rule="evenodd" fill="#FFFFFF" d="M542.621,370.622c1.204,0.156,3.035-0.314,3.84,0.24
			C545.257,370.706,543.426,371.177,542.621,370.622z"/>
		<path fill-rule="evenodd" clip-rule="evenodd" fill="#FFFFFF" d="M837.341,418.382c0.808,0.152,2.229-0.309,2.64,0.24
			C839.173,418.47,837.752,418.932,837.341,418.382z"/>
		<path fill-rule="evenodd" clip-rule="evenodd" fill="#FFFFFF" d="M277.901,435.183c0.414-0.398,2.466-0.398,2.88,0
			C279.821,435.183,278.861,435.183,277.901,435.183z"/>
		<path fill-rule="evenodd" clip-rule="evenodd" fill="#FFFFFF" d="M963.82,477.662c0.647-0.553,2.315-0.085,3.36-0.24
			C966.534,477.976,964.866,477.508,963.82,477.662z"/>
		<path fill-rule="evenodd" clip-rule="evenodd" fill="#FFFFFF" d="M958.541,477.902c0.41-0.55,1.832-0.088,2.64-0.24
			C960.77,478.211,959.349,477.75,958.541,477.902z"/>
		<path fill-rule="evenodd" clip-rule="evenodd" fill="#FFFFFF" d="M739.181,514.622c1.92,0,3.84,0,5.76,0
			C743.576,515.021,740.545,515.021,739.181,514.622z"/>
	</g>
	<g>
		<path fill-rule="evenodd" clip-rule="evenodd" fill="#FFFFFF" d="M517.541,591.61c3.36,0,6.72,0,10.08,0
			c0,26.641,0,53.28,0,79.921c-11.976,2.775-28.617,5.068-40.08,1.199c-10.9-3.679-17.52-12.506-17.52-27.359
			c0-9.979,4.17-18.58,11.52-23.761c8.602-6.063,26.103-7.538,35.76-1.199c0-9.36,0-18.721,0-28.08
			C517.28,591.99,517.261,591.651,517.541,591.61z M498.341,624.73c-6.045,0.532-10.98,3.332-13.68,6.721
			c-5.791,7.265-5.414,22.256,1.2,29.04c6.729,6.902,20.723,6.785,31.44,3.84c0-11.28,0-22.561,0-33.84
			C512.764,626.8,506.743,623.991,498.341,624.73z"/>
		<path fill-rule="evenodd" clip-rule="evenodd" fill="#FFFFFF" d="M653.141,593.531c5.474-1.131,9.473,1.729,9.36,6.96
			c-0.229,10.616-18.942,7.989-14.16-3.36C649.013,595.535,650.206,594.137,653.141,593.531z"/>
		<path fill-rule="evenodd" clip-rule="evenodd" fill="#FFFFFF" d="M823.301,605.531c-1.396,2.845-3.101,5.379-4.32,8.399
			c-5.998-4.652-21.727-9.212-29.76-3.36c-4.991,3.637-4.742,12.622,0.72,16.08c4.402,2.788,11.213,3.296,16.32,4.32
			c11.854,2.379,22.662,8.406,21.12,24.96c-2.038,21.872-37.652,23.146-54.48,12.48c1.075-3.246,2.443-6.197,3.36-9.601
			c7.548,5.082,25.131,10.132,35.28,3.84c3.899-2.417,7.551-8.009,4.56-15.119c-4.206-9.997-22.847-6.043-32.64-12.721
			c-10.115-6.896-10.463-23.529-1.44-30.72C791.12,596.839,814.695,598.06,823.301,605.531z"/>
		<path fill-rule="evenodd" clip-rule="evenodd" fill="#FFFFFF" d="M422.5,600.73c3.92,0,7.84,0,11.76,0
			c10.231,24.329,20.778,48.343,30.96,72.721c-3.68,0-7.36,0-11.04,0c-3.252-7.308-6.328-14.793-9.6-22.08c-11.04,0-22.08,0-33.12,0
			c-3.468,7.012-6.128,14.831-9.36,22.08c-3.68,0-7.36,0-11.04,0C401.641,649.311,411.733,624.683,422.5,600.73z M431.621,618.73
			c-0.932-2.31-2.259-7.055-3.84-7.68c-4.645,10.235-8.814,20.946-12.96,31.68c8.8,0,17.6,0,26.4,0
			C438.349,635.205,434.785,626.575,431.621,618.73z"/>
		<path fill-rule="evenodd" clip-rule="evenodd" fill="#FFFFFF" d="M966.581,603.371c0.912,0.447,2.447,0.272,3.359,0.72
			c0,4.4,0,8.8,0,13.2c6.96,0.56,14.96,0.08,22.32,0.24c-0.39,2.49,0.021,5.781-0.48,8.159c-5.882,0.51-14.781-0.424-21.84-0.72
			c1.926,14.514-5.569,39.204,8.16,41.28c6.361,0.962,10.849-1.781,15.12-3.84c0.953,2.486,2.137,4.743,3.12,7.199
			c-6.492,6.335-23.771,6.737-30.72,1.2c-9.912-7.898-5.112-28.027-6.24-44.64c-2.775-0.665-6.105-0.775-8.88-1.44
			c-1.487-5.476,4.656-5.896,7.439-8.399C960.501,614.027,963.919,605.884,966.581,603.371z"/>
		<path fill-rule="evenodd" clip-rule="evenodd" fill="#FFFFFF" d="M591.221,626.171c5.798-7.486,22.465-14.214,34.8-6.96
			c13.454,7.912,8.456,33.329,9.36,54.24c-3.44,0-6.88,0-10.32,0c0-7.327,0-14.967,0-22.801c0-8.365,0.739-18.019-3.36-22.56
			c-7.145-7.916-24.418-0.658-27.84,6.479c1.464,11.736,0.391,26.01,0.72,38.881c-3.52,0-7.04,0-10.56,0
			c-0.444-11.065,0.59-24.154,0-34.801c-0.18-3.244-0.704-6.446-2.16-8.88c-3.558-5.945-13.642-6.007-20.16-2.88
			c-4.356,2.09-6.557,5.043-9.12,8.16c0,12.8,0,25.6,0,38.4c-3.44,0-6.88,0-10.32,0c0-18.641,0-37.28,0-55.92c3.04,0,6.08,0,9.12,0
			c-0.05,2.93,0.501,5.258,0.48,8.159c1.956-1.139,3.076-3.407,5.28-5.04C566.18,613.957,587.128,614.788,591.221,626.171z"/>
		<path fill-rule="evenodd" clip-rule="evenodd" fill="#FFFFFF" d="M728.74,673.451c-3.439,0-6.88,0-10.319,0
			c0-7.545,0-15.486,0-23.521c0-9.788,0.539-20.337-6-23.76c-9.335-4.887-23.549,2.18-27.12,8.88c0,12.8,0,25.6,0,38.4
			c-3.521,0-7.04,0-10.561,0c0-18.641,0-37.28,0-55.92c3.04,0,6.08,0,9.12,0c0.424,2.536,0.342,5.578,0.721,8.159
			c4.209-4.554,9.956-8.732,18.479-9.359c6.6-0.485,12.279,0.657,16.32,3.12C733.076,627.798,727.69,651.906,728.74,673.451z"/>
		<path fill-rule="evenodd" clip-rule="evenodd" fill="#FFFFFF" d="M942.581,619.69c-1.138,2.703-2.111,5.569-3.36,8.16
			c-6.459-3.636-30.325-7.109-30.96,3.601c-0.484,8.173,11.025,7.422,18.479,8.64c10.376,1.694,21.475,7.272,18.24,21.6
			c-3.478,15.406-32.788,15.301-46.8,9.12c0.945-2.814,1.801-5.72,2.64-8.64c7.004,4.039,24.182,6.184,31.44,1.2
			c2.632-1.808,4.201-5.404,2.88-8.88c-1.938-5.102-10.587-5.076-17.52-6c-9.981-1.331-19.436-5.067-19.2-16.08
			C898.812,614.142,927.497,613.711,942.581,619.69z"/>
		<path fill-rule="evenodd" clip-rule="evenodd" fill="#FFFFFF" d="M831.701,617.531c3.36-0.56,7.759-0.081,11.52-0.24
			c7.396,14.924,14.39,30.25,21.84,45.12c6.092-14.629,11.234-30.206,17.04-45.12c3.68,0,7.36,0,11.04,0
			c-6.202,15.899-14.227,34.975-21.12,51.6c-2.426,5.851-4.262,12.058-6.96,17.04c-3.766,6.954-14.335,12.595-24.24,8.4
			c0.196-3.005,1.046-5.354,1.44-8.16c7.578,1.785,13.063-0.896,15.6-6.24c0.874-1.84,2.187-4.531,2.16-6
			c-0.026-1.526-2.223-5.064-3.36-7.2C848.444,651.311,839.342,631.791,831.701,617.531z"/>
		<path fill-rule="evenodd" clip-rule="evenodd" fill="#FFFFFF" d="M650.021,617.531c3.44,0,6.88,0,10.32,0
			c0,18.64,0,37.279,0,55.92c-3.521,0-7.04,0-10.561,0c0-18.4,0-36.801,0-55.2C649.76,617.91,649.741,617.571,650.021,617.531z"/>
	</g>
</g>
<g id="ball">
	<path fill-rule="evenodd" clip-rule="evenodd" fill="#FFFFFF" d="M1127.35,619.85c-4.399-1.6-9.183-2.399-14.35-2.399
		c-5.133,0-9.883,0.8-14.25,2.399c-3.867,2.767-6.233,6.217-7.1,10.351c-4.7-0.5-8.283,0.5-10.75,3
		c-5.733,7.1-8.601,15.383-8.601,24.85c0,1.334,0.067,2.601,0.2,3.8c1.667,4.101,3.55,6.9,5.65,8.4c-1.167,2.467-1.2,5.4-0.101,8.8
		c1.733,2.733,3.817,5.283,6.25,7.65c6.033,6.033,12.967,9.8,20.8,11.3c3.033,0.3,5.45-0.35,7.25-1.95c1.601,1.601,4,2.334,7.2,2.2
		c8.4-1.267,15.817-5.116,22.25-11.55c1.867-1.9,3.55-3.9,5.05-6c0.101-0.167,0.184-0.334,0.25-0.5
		c1.467-2.334,1.167-5.351-0.899-9.05c2.967-2.2,5.383-5.367,7.25-9.5c0.066-1.2,0.1-2.4,0.1-3.601c0-9.166-2.633-17.25-7.899-24.25
		c-3.567-2.866-7.434-3.85-11.601-2.95C1132.95,625.483,1130.717,621.816,1127.35,619.85z M1071.35,658.05
		c0-11.533,4.067-21.333,12.2-29.399c8.167-8.233,18.017-12.351,29.55-12.351c11.567,0,21.367,4.117,29.4,12.351
		c8.2,8.066,12.3,17.866,12.3,29.399c0,11.566-4.1,21.434-12.3,29.601c-8.033,8.133-17.833,12.199-29.4,12.199
		c-11.533,0-21.383-4.066-29.55-12.199C1075.417,679.483,1071.35,669.616,1071.35,658.05z M1078.15,670.25
		c3.133-7.134,7.183-12.833,12.149-17.1c1.101,8.767,3.8,17.5,8.101,26.199C1089.3,677.583,1082.55,674.55,1078.15,670.25z
		 M1112.85,636.9c6.033-3.2,13.101-5.217,21.2-6.051c1.833,8,1.934,15.601,0.3,22.801c4.7,4.3,8.65,10.133,11.851,17.5
		c-7.033,4.833-14.101,7.566-21.2,8.199c-3.667,6.567-7.883,12.134-12.65,16.7c-7.066-5.6-11.717-11.166-13.949-16.7
		c8.533,1.2,17.399,1.2,26.6,0c4.533-7.767,7.65-16.333,9.35-25.699C1127.95,647.616,1120.783,642.033,1112.85,636.9
		c-8.833,4.899-16.35,10.316-22.55,16.25c-1.7-9.034-1.25-16.684,1.351-22.95C1098.517,631.467,1105.583,633.7,1112.85,636.9z"/>
</g>
<g id="kaki">
	<path fill-rule="evenodd" clip-rule="evenodd" fill="#FFFFFF" d="M1109.5,588.35c3.934,2.601,6.867,4.117,8.8,4.551l-0.75,16.899
		c7.9,1.5,13.934,4.684,18.101,9.55c0.3,2.4-3.45,2.434-11.25,0.101c-7.768-2.367-16.233-1.934-25.4,1.3
		c-9.1,3.233-10.816,2.384-5.15-2.55c5.634-4.9,11.884-7.783,18.75-8.65L1109.5,588.35z"/>
</g>
<g id="cock">
	<path fill-rule="evenodd" clip-rule="evenodd" fill="#D20000" d="M1047.75,419c0.6-0.366,1.3-0.55,2.1-0.55
		c0.9,0,1.617,0.184,2.15,0.55c0.667,0.4,1,0.833,1,1.3c0,0.533-0.333,1-1,1.4c-0.533,0.366-1.25,0.55-2.15,0.55
		c-0.8,0-1.5-0.184-2.1-0.55c-0.633-0.4-0.95-0.867-0.95-1.4C1046.8,419.833,1047.117,419.4,1047.75,419z"/>
	<path fill-rule="evenodd" clip-rule="evenodd" fill="#FFFFFF" d="M1033.35,388.9c-0.267,4.8,0.667,6.95,2.801,6.45
		c2.199-0.267,2.416-1.583,0.649-3.95c6.967-1.967,11.783-5.083,14.45-9.35c-2.5,4.567-3.25,7.367-2.25,8.4
		c5.043-1.729,9.043-4.378,12-7.95c1.207-1.466,2.24-3.083,3.1-4.85c4.163,8.438,3.13,14.122-3.1,17.05
		c-1.104,0.52-2.37,0.954-3.8,1.3c-15.833,2.767-24.783,7.3-26.851,13.6c-4.333,0.801-5.933-1.666-4.8-7.399
		c0.9-3.434,2.667-6.8,5.3-10.1L1033.35,388.9z M1192.55,431.85c11.533,19.467,8.884,41.117-7.95,64.95
		c9.768-46.8-2.8-67.717-37.699-62.75C1165.833,417.75,1181.05,417.017,1192.55,431.85z M1196.5,490.55
		c11.267-18.8,14.117-35.166,8.55-49.1C1219.283,456.417,1216.434,472.783,1196.5,490.55z M1161.15,557.05
		c-33.667,18.4-65.601,16.25-95.801-6.45c-1.528-1.18-2.979-2.472-4.35-3.875c-8.737-8.894-14.287-22.185-16.65-39.875
		c4.468,9.84,10.018,18.04,16.65,24.601c8.018,7.944,17.617,13.494,28.8,16.649c20.967,6.5,39.717,6.25,56.25-0.75
		c-29.066,4.601-52.633-0.433-70.7-15.1c-5.813-5.319-10.597-10.711-14.35-16.175c-13.67-19.918-13.67-40.81,0-62.675
		c0.05-0.087,0.1-0.171,0.15-0.25c7.232-11.134,10.816-24.284,10.75-39.45c12.866,13.366,17.399,28.983,13.6,46.85
		c-3.066,15.867-1.333,25.384,5.2,28.55c-2.333-11.666-2.167-22.449,0.5-32.35c4.2-19.767-1.934-36.95-18.4-51.55
		c13.7,4.399,22.434,16.733,26.2,37c2.467,15.166,4.184,28.967,5.15,41.399c1.933,23.934,18.05,34.851,48.35,32.75
		c20.633-2.5,35.816-9.966,45.55-22.399C1197.217,520.25,1184.917,541.283,1161.15,557.05z M1061,403.875
		c0.5,0.335,1,0.693,1.5,1.075c8.342,8.267,7.842,19.991-1.5,35.175c-3.126,5.091-7.243,10.565-12.35,16.425
		c-15.033-5.166-18.617-16.649-10.75-34.45c1.699-6.767-0.134-10.116-5.5-10.05C1041.723,400.096,1051.256,397.371,1061,403.875z
		 M1057.2,420.75c0-1.233-0.7-2.267-2.101-3.1c-1.366-0.801-3.017-1.2-4.949-1.2c-1.967,0-3.65,0.399-5.051,1.2
		c-1.333,0.833-2,1.866-2,3.1c0,1.167,0.667,2.2,2,3.1c1.4,0.834,3.084,1.25,5.051,1.25c1.933,0,3.583-0.416,4.949-1.25
		C1056.5,422.95,1057.2,421.917,1057.2,420.75z M1033.05,424.65c-7.3-3.867-12.916-3.534-16.85,1c1.767-6.434,6.434-10.817,14-13.15
		C1033.5,416.267,1034.45,420.316,1033.05,424.65z M1134.3,575.8c-10.833,6.066-16.233,12.983-16.2,20.75
		c-6.267-6.666-19.217-16.366-38.85-29.1C1097.283,576.15,1115.633,578.934,1134.3,575.8z"/>
</g>
<g id="eyes">
	<path fill-rule="evenodd" clip-rule="evenodd" fill="#FFFFFF" d="M1053.05,420.65c-0.165,0.292-0.448,0.559-0.85,0.8
		c-0.533,0.366-1.25,0.55-2.15,0.55c-0.8,0-1.5-0.184-2.1-0.55c-0.634-0.4-0.95-0.867-0.95-1.4c0-0.146,0.033-0.287,0.1-0.425
		c0.146-0.271,0.412-0.529,0.801-0.775c0.6-0.366,1.3-0.55,2.1-0.55c0.9,0,1.617,0.184,2.15,0.55c0.666,0.4,1,0.834,1,1.301
		C1053.15,420.326,1053.117,420.492,1053.05,420.65z"/>
</g>
</svg>
